# xmcd CD database file
#
# Track frame offsets:
#	150
#	18938
#	37672
#	54231
#	59299
#	80768
#	97575
#	116093
#	135468
#	156409
#	171650
#	195288
#	211363
#
# Disc length: 3041 seconds
#
# Revision: 0
# Processed by: cddbd v1.5.2PL0 Copyright (c) Steve Scherf et al.
# Submitted via: CDex 1.51
#
DISCID=a20bdf0d
DTITLE=Pitchblend - The Lines of Unreason
DYEAR=2008
DGENRE=Salsa
TTITLE0=Sirens
TTITLE1=Celsius
TTITLE2=Design Our Own Escape
TTITLE3=Four
TTITLE4=Somewhere I Could Never Find
TTITLE5=Balance Restored
TTITLE6=Everything From Here On
TTITLE7=Searching for Satellites
TTITLE8=Revelation
TTITLE9=December Song
TTITLE10=Timeless
TTITLE11=Foundation for Reason and Science
TTITLE12=Sirenna
EXTD=YEAR: 2008
EXTT0=
EXTT1=
EXTT2=
EXTT3=
EXTT4=
EXTT5=
EXTT6=
EXTT7=
EXTT8=
EXTT9=
EXTT10=
EXTT11=
EXTT12=
PLAYORDER=
